# xmcd
#
# Track frame offsets:
#	150
#	10768
#	21870
#	33640
#	48920
#	62115
#	70230
#	79598
#	91273
#	101383
#	110188
#	125395
#	138353
#	151138
#	165890
#	180963
#	195250
#
# Disc length: 2735 seconds
#
# Revision: 1
# Processed by: cddbd v1.5.1PL0 Copyright (c) Steve Scherf et al.
# Submitted via: audiograbber 1.82.02
#
DISCID=c90aad11
DTITLE=J.J. Cale - 444- The Ultimate Collection - Disc 1
DYEAR=1900
DGENRE=Blues
TTITLE0=After Midnight
TTITLE1=Crazy Mama
TTITLE2=Call me the breeze
TTITLE3=Magnolia
TTITLE4=Lies
TTITLE5=I'll kiss the world goodbye
TTITLE6=If you're ever in Oklahoma
TTITLE7=Crying
TTITLE8=Cajun Moon
TTITLE9=Okie
TTITLE10=Anyway the wind blows
TTITLE11=Cocaine
TTITLE12=Travelin' light
TTITLE13=Hey baby
TTITLE14=Cherry
TTITLE15=I'll make love to you anytime
TTITLE16=Don't cry sister
EXTD=
EXTT0=
EXTT1=
EXTT2=
EXTT3=
EXTT4=
EXTT5=
EXTT6=
EXTT7=
EXTT8=
EXTT9=
EXTT10=
EXTT11=
EXTT12=
EXTT13=
EXTT14=
EXTT15=
EXTT16=
PLAYORDER=
